<?xml version="1.0" standalone="no"?><!DOCTYPE svg PUBLIC "-//W3C//DTD SVG 1.1//EN" "http://www.w3.org/Graphics/SVG/1.1/DTD/svg11.dtd"><svg t="1707269874045" class="icon" viewBox="0 0 1024 1024" version="1.1" xmlns="http://www.w3.org/2000/svg" p-id="6759" xmlns:xlink="http://www.w3.org/1999/xlink" width="200" height="200"><path d="M512 0C228 0 0 230.4 0 512s230.4 512 512 512 512-230.4 512-512C1024 228 796 0 512 0z" fill="#F8D856" p-id="6760"></path><path d="M649.6 493.6v44H540v60.8h109.6v44H540v88.8h-56v-88.8H370.4v-44h114.4v-60.8H370.4v-44h95.2l-116-200h63.2C468 393.6 500 456 512 481.6c4.8-12 16-32.8 32.8-67.2L612 291.2h60.8l-118.4 200h95.2v2.4z" fill="#F9AD01" p-id="6761"></path><path d="M512 0C228 0 0 230.4 0 512s230.4 512 512 512 512-230.4 512-512C1024 228 796 0 512 0z m0 921.6C286.4 921.6 102.4 740 102.4 512c0-223.2 184-407.2 409.6-407.2s409.6 181.6 409.6 409.6c0 223.2-186.4 407.2-409.6 407.2z" fill="#F9CA01" p-id="6762"></path></svg>